<svg width="1251" height="327" viewBox="0 0 1251 327" fill="none" xmlns="http://www.w3.org/2000/svg">
<path d="M653.247 166.776C639.778 166.776 628.417 164.668 619.166 160.45C609.914 156.096 602.907 150.246 598.145 142.899C593.384 135.416 591.003 126.845 591.003 117.185H623.451C623.451 120.994 624.472 124.532 626.513 127.797C628.689 131.062 631.955 133.715 636.308 135.756C640.662 137.661 646.308 138.613 653.247 138.613C659.506 138.613 664.744 137.797 668.961 136.164C673.179 134.532 676.376 132.287 678.553 129.43C680.73 126.437 681.818 123.035 681.818 119.226C681.818 114.464 679.778 110.722 675.696 108.001C671.614 105.144 665.016 103.308 655.9 102.491L644.676 101.471C629.846 100.246 618.009 95.6205 609.166 87.5934C600.322 79.5662 595.901 68.954 595.901 55.7569C595.901 46.2331 598.145 38.0019 602.635 31.0632C607.261 24.1244 613.656 18.8184 621.819 15.1449C629.982 11.3354 639.642 9.43066 650.798 9.43066C662.499 9.43066 672.499 11.4715 680.798 15.5531C689.233 19.4986 695.696 25.1448 700.186 32.4917C704.675 39.7025 706.92 48.2059 706.92 58.0017H674.267C674.267 54.3283 673.383 50.995 671.614 48.0018C669.846 44.8726 667.193 42.3556 663.655 40.4508C660.254 38.5461 655.968 37.5937 650.798 37.5937C645.9 37.5937 641.751 38.41 638.349 40.0427C635.084 41.6753 632.635 43.9202 631.002 46.7773C629.37 49.4984 628.553 52.4916 628.553 55.7569C628.553 59.9745 630.05 63.648 633.043 66.7772C636.036 69.9064 640.934 71.7431 647.737 72.2873L659.165 73.3077C670.05 74.2601 679.641 76.6411 687.941 80.4506C696.24 84.124 702.703 89.226 707.328 95.7566C712.09 102.151 714.471 109.974 714.471 119.226C714.471 128.75 711.954 137.117 706.92 144.328C702.022 151.402 695.016 156.913 685.9 160.858C676.784 164.804 665.9 166.776 653.247 166.776Z" fill="white"/>
<path d="M785.898 166.776C776.238 166.776 767.802 165.212 760.592 162.083C753.517 158.817 747.599 154.464 742.837 149.021C738.075 143.579 734.537 137.457 732.225 130.654C729.912 123.716 728.755 116.573 728.755 109.226V105.348C728.755 97.7293 729.98 90.4505 732.429 83.5117C734.878 76.437 738.483 70.1785 743.245 64.7364C748.007 59.2942 753.925 55.0086 761 51.8793C768.211 48.7501 776.442 47.1855 785.694 47.1855C795.761 47.1855 804.673 49.1583 812.428 53.1038C820.183 56.9133 826.374 62.2874 830.999 69.2261C835.625 76.1649 838.21 84.124 838.754 93.1035H806.714C806.17 88.0695 804.129 83.8519 800.591 80.4506C797.19 76.9132 792.224 75.1445 785.694 75.1445C780.251 75.1445 775.694 76.505 772.02 79.2261C768.483 81.9471 765.83 85.6886 764.061 90.4505C762.292 95.2123 761.408 100.859 761.408 107.389C761.408 113.375 762.224 118.818 763.857 123.716C765.49 128.477 768.075 132.219 771.612 134.94C775.285 137.525 780.047 138.817 785.898 138.817C790.251 138.817 793.925 138.069 796.918 136.573C800.047 134.94 802.496 132.763 804.265 130.042C806.17 127.185 807.326 123.92 807.734 120.246H839.571C839.162 129.498 836.578 137.661 831.816 144.736C827.054 151.675 820.727 157.117 812.836 161.062C804.945 164.872 795.966 166.776 785.898 166.776Z" fill="white"/>
<path d="M914.943 166.776C905.147 166.776 896.44 165.28 888.821 162.287C881.202 159.157 874.739 154.94 869.433 149.634C864.263 144.328 860.318 138.273 857.597 131.471C854.876 124.532 853.515 117.253 853.515 109.634V104.94C853.515 97.1851 854.876 89.8382 857.597 82.8995C860.454 75.8247 864.535 69.6343 869.842 64.3282C875.284 59.0221 881.814 54.8725 889.433 51.8793C897.052 48.7501 905.556 47.1855 914.943 47.1855C924.603 47.1855 933.174 48.7501 940.657 51.8793C948.276 54.8725 954.739 59.0221 960.045 64.3282C965.351 69.6343 969.433 75.8247 972.29 82.8995C975.147 89.8382 976.575 97.1851 976.575 104.94V109.634C976.575 117.253 975.215 124.532 972.494 131.471C969.773 138.273 965.759 144.328 960.453 149.634C955.283 154.94 948.889 159.157 941.27 162.287C933.651 165.28 924.875 166.776 914.943 166.776ZM914.943 139.226C921.338 139.226 926.644 137.865 930.861 135.144C935.079 132.423 938.276 128.613 940.453 123.716C942.766 118.818 943.923 113.375 943.923 107.389C943.923 100.995 942.766 95.4164 940.453 90.6546C938.14 85.7566 934.807 81.8791 930.453 79.022C926.236 76.1649 921.066 74.7363 914.943 74.7363C908.957 74.7363 903.787 76.1649 899.433 79.022C895.079 81.8791 891.746 85.7566 889.433 90.6546C887.256 95.4164 886.168 100.995 886.168 107.389C886.168 113.375 887.256 118.818 889.433 123.716C891.61 128.613 894.875 132.423 899.229 135.144C903.583 137.865 908.821 139.226 914.943 139.226Z" fill="white"/>
<path d="M999.364 162.899V51.063H1025.28V99.0218H1024.67C1024.67 83.2396 1028 71.0629 1034.67 62.4915C1041.47 53.9201 1051.27 49.6345 1064.06 49.6345H1068.34V77.7975H1060.18C1051.2 77.7975 1044.26 80.2465 1039.36 85.1444C1034.47 89.9063 1032.02 96.845 1032.02 105.961V162.899H999.364Z" fill="white"/>
<path d="M1135.89 166.776C1126.36 166.776 1117.93 165.144 1110.58 161.879C1103.37 158.613 1097.32 154.26 1092.42 148.817C1087.66 143.239 1083.98 137.049 1081.4 130.246C1078.95 123.307 1077.72 116.233 1077.72 109.022V104.94C1077.72 97.4572 1078.95 90.3144 1081.4 83.5117C1083.98 76.573 1087.66 70.3826 1092.42 64.9405C1097.18 59.4983 1103.1 55.2126 1110.17 52.0834C1117.38 48.8181 1125.55 47.1855 1134.66 47.1855C1146.64 47.1855 1156.7 49.9066 1164.87 55.3487C1173.17 60.6548 1179.49 67.6615 1183.85 76.3689C1188.2 84.9403 1190.38 94.328 1190.38 104.532V115.552H1091.4V96.981H1170.58L1159.97 105.552C1159.97 98.8858 1159.02 93.1715 1157.11 88.4097C1155.21 83.6478 1152.35 80.0424 1148.54 77.5934C1144.87 75.0084 1140.24 73.7159 1134.66 73.7159C1128.95 73.7159 1124.12 75.0084 1120.17 77.5934C1116.23 80.1784 1113.23 83.9879 1111.19 89.0219C1109.15 93.9198 1108.13 99.9742 1108.13 107.185C1108.13 113.852 1109.08 119.702 1110.99 124.736C1112.89 129.634 1115.89 133.443 1119.97 136.164C1124.05 138.885 1129.36 140.246 1135.89 140.246C1141.87 140.246 1146.77 139.09 1150.58 136.777C1154.39 134.464 1156.98 131.607 1158.34 128.205H1188.34C1186.7 135.688 1183.51 142.355 1178.74 148.205C1173.98 154.055 1168 158.613 1160.78 161.879C1153.57 165.144 1145.27 166.776 1135.89 166.776Z" fill="white"/>
<path d="M611.146 255.216V237.57H624.381C626.881 237.57 629.05 237.092 630.888 236.136C632.726 235.107 634.16 233.673 635.189 231.835C636.219 229.997 636.733 227.828 636.733 225.328C636.733 222.754 636.219 220.549 635.189 218.71C634.16 216.872 632.726 215.475 630.888 214.519C629.05 213.564 626.881 213.086 624.381 213.086H611.146V195.439H623.829C630.741 195.439 636.696 196.616 641.696 198.968C646.77 201.248 650.667 204.556 653.387 208.895C656.108 213.233 657.468 218.416 657.468 224.445V226.21C657.468 232.166 656.108 237.313 653.387 241.651C650.667 245.989 646.77 249.334 641.696 251.687C636.696 254.04 630.741 255.216 623.829 255.216H611.146ZM592.838 276.613V195.439H613.352V276.613H592.838Z" fill="white"/>
<path d="M696.171 278.819C690.804 278.819 686.024 278.01 681.833 276.392C677.642 274.775 674.076 272.532 671.135 269.665C668.268 266.797 666.062 263.488 664.518 259.738C663.047 255.989 662.312 251.981 662.312 247.717V245.07C662.312 240.658 663.084 236.541 664.628 232.717C666.246 228.894 668.525 225.548 671.466 222.681C674.407 219.813 677.973 217.571 682.164 215.953C686.355 214.336 691.024 213.527 696.171 213.527C701.391 213.527 706.06 214.336 710.178 215.953C714.369 217.571 717.935 219.813 720.876 222.681C723.817 225.548 726.06 228.894 727.604 232.717C729.221 236.541 730.03 240.658 730.03 245.07V247.717C730.03 251.981 729.258 255.989 727.714 259.738C726.244 263.488 724.038 266.797 721.097 269.665C718.229 272.532 714.7 274.775 710.509 276.392C706.318 278.01 701.539 278.819 696.171 278.819ZM696.171 262.054C699.259 262.054 701.796 261.393 703.781 260.069C705.84 258.746 707.384 256.908 708.413 254.555C709.443 252.128 709.957 249.408 709.957 246.393C709.957 243.232 709.406 240.474 708.303 238.121C707.274 235.695 705.73 233.783 703.671 232.386C701.612 230.989 699.112 230.291 696.171 230.291C693.23 230.291 690.73 230.989 688.671 232.386C686.613 233.783 685.032 235.695 683.929 238.121C682.9 240.474 682.385 243.232 682.385 246.393C682.385 249.408 682.9 252.128 683.929 254.555C684.958 256.908 686.502 258.746 688.561 260.069C690.62 261.393 693.156 262.054 696.171 262.054Z" fill="white"/>
<path d="M741.02 276.613V215.733H756.901V241.871H756.019C756.019 235.548 756.828 230.328 758.445 226.21C760.063 222.019 762.453 218.894 765.614 216.835C768.85 214.777 772.746 213.747 777.305 213.747H778.187C785.099 213.747 790.43 216.063 794.18 220.696C798.003 225.254 799.915 232.276 799.915 241.761V276.613H779.842V241.21C779.842 238.416 778.996 236.136 777.305 234.372C775.688 232.533 773.445 231.614 770.577 231.614C767.71 231.614 765.394 232.533 763.629 234.372C761.938 236.136 761.092 238.489 761.092 241.43V276.613H741.02Z" fill="white"/>
<path d="M842.404 277.495C835.787 277.495 830.493 276.686 826.522 275.069C822.625 273.451 819.794 270.767 818.03 267.018C816.265 263.268 815.383 258.194 815.383 251.797L815.493 199.851H834.022L833.912 252.349C833.912 255.069 834.61 257.165 836.007 258.635C837.478 260.032 839.573 260.731 842.294 260.731H850.676V277.495H842.404ZM806.56 230.291V215.733H850.676V230.291H806.56Z" fill="white"/>
<path d="M891.549 278.819C886.181 278.819 881.402 278.01 877.211 276.392C873.02 274.775 869.454 272.532 866.513 269.665C863.645 266.797 861.439 263.488 859.895 259.738C858.425 255.989 857.689 251.981 857.689 247.717V245.07C857.689 240.658 858.462 236.541 860.006 232.717C861.623 228.894 863.902 225.548 866.844 222.681C869.785 219.813 873.351 217.571 877.542 215.953C881.733 214.336 886.402 213.527 891.549 213.527C896.769 213.527 901.438 214.336 905.555 215.953C909.746 217.571 913.313 219.813 916.254 222.681C919.195 225.548 921.437 228.894 922.981 232.717C924.599 236.541 925.408 240.658 925.408 245.07V247.717C925.408 251.981 924.636 255.989 923.092 259.738C921.621 263.488 919.415 266.797 916.474 269.665C913.607 272.532 910.077 274.775 905.886 276.392C901.695 278.01 896.916 278.819 891.549 278.819ZM891.549 262.054C894.637 262.054 897.173 261.393 899.159 260.069C901.217 258.746 902.761 256.908 903.791 254.555C904.82 252.128 905.335 249.408 905.335 246.393C905.335 243.232 904.784 240.474 903.681 238.121C902.651 235.695 901.107 233.783 899.048 232.386C896.99 230.989 894.49 230.291 891.549 230.291C888.608 230.291 886.108 230.989 884.049 232.386C881.99 233.783 880.409 235.695 879.306 238.121C878.277 240.474 877.762 243.232 877.762 246.393C877.762 249.408 878.277 252.128 879.306 254.555C880.336 256.908 881.88 258.746 883.939 260.069C885.997 261.393 888.534 262.054 891.549 262.054Z" fill="white"/>
<path d="M976.206 278.488C969.001 278.488 962.824 277.238 957.678 274.738C952.604 272.164 948.45 268.819 945.215 264.701C942.053 260.584 939.737 256.136 938.266 251.356C936.796 246.504 936.061 241.798 936.061 237.239V235.144C936.061 230.217 936.796 225.328 938.266 220.475C939.811 215.549 942.163 211.1 945.325 207.13C948.56 203.159 952.678 199.998 957.678 197.645C962.677 195.219 968.596 194.005 975.434 194.005C982.346 194.005 988.302 195.219 993.301 197.645C998.375 200.071 1002.42 203.49 1005.43 207.902C1008.45 212.24 1010.29 217.387 1010.95 223.343H1002.46C1001.87 218.563 1000.32 214.593 997.823 211.431C995.323 208.196 992.125 205.77 988.228 204.152C984.405 202.534 980.14 201.726 975.434 201.726C970.361 201.726 965.876 202.645 961.979 204.483C958.155 206.248 954.957 208.747 952.384 211.983C949.81 215.144 947.862 218.821 946.538 223.012C945.215 227.129 944.553 231.541 944.553 236.247C944.553 240.732 945.178 245.033 946.428 249.151C947.751 253.268 949.737 256.981 952.384 260.29C955.031 263.525 958.339 266.098 962.31 268.01C966.28 269.848 970.912 270.767 976.206 270.767C983.559 270.767 989.735 268.929 994.735 265.253C999.735 261.503 1002.82 256.136 1004 249.151H1012.49C1011.68 254.665 1009.77 259.665 1006.76 264.15C1003.74 268.562 999.661 272.054 994.514 274.628C989.441 277.201 983.338 278.488 976.206 278.488Z" fill="white"/>
<path d="M1053.73 278.488C1048.73 278.488 1044.32 277.642 1040.5 275.951C1036.75 274.186 1033.55 271.87 1030.9 269.003C1028.33 266.062 1026.35 262.79 1024.95 259.187C1023.63 255.584 1022.96 251.908 1022.96 248.158V246.614C1022.96 242.864 1023.66 239.188 1025.06 235.585C1026.46 231.908 1028.48 228.637 1031.12 225.769C1033.77 222.901 1036.97 220.622 1040.72 218.931C1044.54 217.166 1048.88 216.284 1053.73 216.284C1058.66 216.284 1063 217.166 1066.75 218.931C1070.57 220.622 1073.81 222.901 1076.45 225.769C1079.1 228.637 1081.09 231.908 1082.41 235.585C1083.81 239.188 1084.51 242.864 1084.51 246.614V248.158C1084.51 251.908 1083.84 255.584 1082.52 259.187C1081.2 262.79 1079.21 266.062 1076.56 269.003C1073.99 271.87 1070.79 274.186 1066.97 275.951C1063.15 277.642 1058.73 278.488 1053.73 278.488ZM1053.73 271.098C1058.59 271.098 1062.67 270.032 1065.98 267.9C1069.36 265.694 1071.93 262.827 1073.7 259.297C1075.46 255.694 1076.34 251.724 1076.34 247.386C1076.34 242.974 1075.42 239.004 1073.59 235.475C1071.82 231.872 1069.25 229.041 1065.87 226.982C1062.48 224.85 1058.44 223.784 1053.73 223.784C1049.1 223.784 1045.1 224.85 1041.71 226.982C1038.33 229.041 1035.72 231.872 1033.88 235.475C1032.12 239.004 1031.24 242.974 1031.24 247.386C1031.24 251.724 1032.12 255.694 1033.88 259.297C1035.65 262.827 1038.18 265.694 1041.49 267.9C1044.87 270.032 1048.96 271.098 1053.73 271.098Z" fill="white"/>
<path d="M1101.37 276.613V218.159H1107.99V242.754H1106.67C1106.67 237.386 1107.4 232.754 1108.87 228.857C1110.42 224.96 1112.7 221.946 1115.71 219.813C1118.73 217.607 1122.55 216.505 1127.18 216.505H1127.51C1132.14 216.505 1135.97 217.571 1138.98 219.703C1142 221.835 1144.24 224.85 1145.71 228.747C1147.18 232.644 1147.92 237.313 1147.92 242.754H1145.27C1145.27 237.386 1146 232.754 1147.48 228.857C1149.02 224.96 1151.3 221.946 1154.31 219.813C1157.4 217.607 1161.26 216.505 1165.89 216.505H1166.22C1170.86 216.505 1174.68 217.571 1177.69 219.703C1180.78 221.835 1183.06 224.85 1184.53 228.747C1186.08 232.644 1186.85 237.313 1186.85 242.754V276.613H1178.58V240.879C1178.58 235.732 1177.33 231.651 1174.83 228.637C1172.33 225.622 1168.72 224.115 1164.02 224.115C1159.17 224.115 1155.31 225.695 1152.44 228.857C1149.64 231.945 1148.25 236.136 1148.25 241.43V276.613H1139.98V240.879C1139.98 235.732 1138.73 231.651 1136.23 228.637C1133.73 225.622 1130.12 224.115 1125.42 224.115C1120.56 224.115 1116.7 225.695 1113.84 228.857C1111.04 231.945 1109.65 236.136 1109.65 241.43V276.613H1101.37Z" fill="white"/>
<path d="M1227.14 66.9959C1223.39 66.9959 1220.04 66.37 1217.1 65.1183C1214.22 63.8122 1211.79 62.0707 1209.83 59.8939C1207.88 57.717 1206.38 55.2953 1205.35 52.6286C1204.37 49.9075 1203.88 47.1593 1203.88 44.3838V43.2409C1203.88 40.411 1204.37 37.6627 1205.35 34.9961C1206.38 32.3294 1207.9 29.9349 1209.92 27.8125C1211.93 25.6356 1214.38 23.9213 1217.26 22.6697C1220.15 21.418 1223.44 20.7921 1227.14 20.7921C1230.9 20.7921 1234.19 21.418 1237.02 22.6697C1239.9 23.9213 1242.35 25.6356 1244.37 27.8125C1246.38 29.9349 1247.88 32.3294 1248.85 34.9961C1249.89 37.6627 1250.41 40.411 1250.41 43.2409V44.3838C1250.41 47.1593 1249.89 49.9075 1248.85 52.6286C1247.88 55.2953 1246.41 57.717 1244.45 59.8939C1242.49 62.0707 1240.04 63.8122 1237.1 65.1183C1234.22 66.37 1230.9 66.9959 1227.14 66.9959ZM1227.14 63.404C1231.17 63.404 1234.62 62.5061 1237.51 60.7102C1240.45 58.9143 1242.68 56.547 1244.2 53.6082C1245.78 50.6694 1246.57 47.4314 1246.57 43.894C1246.57 40.3022 1245.78 37.0369 1244.2 34.0981C1242.68 31.105 1240.45 28.7376 1237.51 26.9961C1234.62 25.2547 1231.17 24.3839 1227.14 24.3839C1223.11 24.3839 1219.66 25.2547 1216.77 26.9961C1213.89 28.7376 1211.66 31.105 1210.08 34.0981C1208.5 37.0369 1207.71 40.3022 1207.71 43.894C1207.71 47.4314 1208.5 50.6694 1210.08 53.6082C1211.66 56.547 1213.89 58.9143 1216.77 60.7102C1219.66 62.5061 1223.11 63.404 1227.14 63.404ZM1218.73 55.8939V30.9961H1222.57V55.8939H1218.73ZM1233.75 55.8939L1225.59 45.9348H1230L1238.32 55.8939H1233.75ZM1220.61 47.1593V43.7307H1227.39C1229.18 43.7307 1230.52 43.3498 1231.39 42.5879C1232.26 41.826 1232.69 40.6559 1232.69 39.0777C1232.69 37.4995 1232.26 36.3566 1231.39 35.6491C1230.52 34.8872 1229.18 34.5063 1227.39 34.5063H1220.61V30.9961H1226.98C1229.97 30.9961 1232.31 31.7036 1234 33.1185C1235.74 34.5335 1236.61 36.5199 1236.61 39.0777C1236.61 41.5811 1235.74 43.5675 1234 45.0368C1232.31 46.4518 1229.97 47.1593 1226.98 47.1593H1220.61Z" fill="white"/>
<path fill-rule="evenodd" clip-rule="evenodd" d="M265.889 0C300.812 6.29863e-05 335.392 7.21179 367.656 21.2236C399.92 35.2357 429.236 55.7742 453.93 81.665C456.555 84.4169 459.122 87.2238 461.63 90.083L380.942 127.719C368.244 117.403 354.289 108.871 339.421 102.371C317.255 92.6814 293.497 87.6943 269.506 87.6943C245.514 87.6944 221.757 92.6814 199.592 102.371C177.426 112.061 157.286 126.264 140.321 144.168C123.356 162.072 109.899 183.329 100.718 206.722C92.3404 228.066 87.6755 250.809 86.9226 273.862C86.833 276.606 84.6081 278.82 81.863 278.82H4.95776C2.19645 278.82 -0.0464821 276.581 0.00073199 273.82C0.597991 238.908 7.44533 204.408 20.2009 172.12C33.5651 138.292 53.1537 107.556 77.8474 81.665C102.541 55.7742 131.858 35.2357 164.122 21.2236C196.386 7.2117 230.967 3.21113e-05 265.889 0ZM486.532 123.183C496.389 138.544 504.787 154.933 511.577 172.12C524.333 204.408 531.18 238.908 531.777 273.82C531.824 276.581 529.581 278.82 526.82 278.82H457.15C454.405 278.82 452.179 276.606 452.09 273.862C451.337 250.809 446.671 228.066 438.294 206.722C434.618 197.357 430.255 188.335 425.259 179.733L486.532 123.183Z" fill="url(#paint0_linear_2163_39)"/>
<path d="M53.9462 110.37C53.9462 110.37 57.2191 105.96 59.3548 103.163C61.4865 100.371 64.9772 96.1569 64.9772 96.1569L134.638 150.449C130.119 155.754 127.756 158.819 123.754 164.264L53.9462 110.37Z" fill="#0E0F12" fill-opacity="0.5"/>
<path d="M205.172 7.36719C205.172 7.36719 210.004 6.14774 213.914 5.3703C217.695 4.61865 222.648 3.68564 222.648 3.68564L247.682 89.0608C242.522 89.7858 237.646 90.454 230.523 92.1884L205.172 7.36719Z" fill="#0E0F12" fill-opacity="0.5"/>
<path fill-rule="evenodd" clip-rule="evenodd" d="M260.109 288.911C247.719 299.741 227.759 293.879 219.402 286.573C203.279 272.477 204.171 238.854 230.472 226.551L522.812 75.9931L260.109 288.911ZM248.913 234.76C237.369 233.314 226.838 241.501 225.392 253.046C223.947 264.59 232.134 275.121 243.678 276.566C255.223 278.012 265.753 269.825 267.199 258.281C268.644 246.736 260.457 236.206 248.913 234.76Z" fill="white"/>
<defs>
<linearGradient id="paint0_linear_2163_39" x1="531.783" y1="139.41" x2="0.00462768" y2="139.41" gradientUnits="userSpaceOnUse">
<stop stop-color="#2AC46D"/>
<stop offset="0.32688" stop-color="#F7EC2E"/>
<stop offset="0.631339" stop-color="#F58F20"/>
<stop offset="1" stop-color="#D33B48"/>
</linearGradient>
</defs>
</svg>
